<?xml version="1.0" encoding="UTF-8"?>
<svg id="Ebene_1" data-name="Ebene 1" xmlns="http://www.w3.org/2000/svg" viewBox="0 0 2083.66 2144.68">
  <defs>
    <style>
      .cls-1, .cls-2, .cls-3, .cls-4, .cls-5 {
        stroke: #d4af37;
      }

      .cls-1, .cls-2, .cls-5 {
        stroke-linecap: round;
        stroke-linejoin: round;
        stroke-width: 12.33px;
      }

      .cls-1, .cls-3, .cls-5 {
        fill: none;
      }

      .cls-2 {
        fill: #d4af37;
      }

      .cls-2, .cls-3, .cls-4, .cls-5 {
        fill-rule: evenodd;
      }

      .cls-3, .cls-4 {
        stroke-miterlimit: 10;
      }

      .cls-4 {
        fill: #fff;
      }
    </style>
  </defs>
  <path class="cls-1" d="M1091.57,582.73l14.21,55.06M1034.72,582.73l-8.88,56.83M1006.3,858.02c1.78,5.33,1.78,17.76,1.78,28.42,5.33,5.33,23.1,14.2,28.43,19.53,7.11,7.11,0,31.97-7.11,35.51-5.33,3.55-23.1,39.08-26.65,46.19-5.33,5.33-5.33,23.09,5.33,31.97,10.66,7.11,37.3-12.43,44.41-19.53-3.54,17.76,10.66,33.75,21.34,35.51,12.44,3.55,28.42-28.42,31.97-37.29-3.54,12.43,15.98,46.17,31.97,37.29,16-8.88,17.78-33.75,19.56-40.84,0,7.11,26.65,44.41,42.63,28.42,15.98-15.98,7.09-35.52,3.54-42.63,5.34-7.09,5.34-30.19,5.34-35.51,0-3.55-7.12-14.21,0-26.64,5.32-10.66,7.09-49.73,5.32-60.39-1.78-10.66-5.32-14.21-5.32-21.31,0,0,23.07-8.88,8.87-17.77-35.51-21.31-74.6-31.97-119.01-40.84-44.43-7.11-72.85,1.78-79.95,7.11-23.1,0-35.54,0-39.09,8.88-7.5-1.62-104.81,12.43-65.73,79.92,5.33-14.21,15.99-28.42,58.64-23.09,40.85,5.33,62.16,21.31,71.06,24.86-10.66-10.65-5.33-21.31-30.21-33.75M999.2,833.15l-8.88-8.88M1040.05,817.17c5.33-3.55,19.55,1.78,31.98,0-5.34,1.78,31.97-5.33,40.85,0,10.64,5.33,15.98,14.2,15.98,17.76"/>
  <path class="cls-2" d="M1052.48,818.95c7.12,0,28.42-1.78,33.77-1.78,7.09,3.57,15.98,6.24,3.54,9.81-14.21,2.68-42.63-8.03-37.31-8.03h0Z"/>
  <path class="cls-1" d="M1709.78,348.29c7.09,21.32,14.19,31.97,14.19,49.73s8.9,28.42,19.56,44.4c12.44,14.2,3.54,31.97-8.9,47.95-10.66,17.76-56.85,46.17-56.85,46.17M1674.25,511.68c5.32,10.66,3.54,23.09,3.54,37.29s-7.09,26.64,1.78,37.3c8.9,12.43-33.75,19.53-55.07,26.64-19.53,5.33-126.13,35.52-161.64,56.83-37.31,23.09-115.46,81.7-163.44,134.98-7.09,8.88-24.88,30.19-10.66,47.95,14.21,17.77,35.54-30.19,55.07-35.51,21.34-3.55,35.54,23.09,14.21,40.84-19.53,17.76-78.14,58.61-87.04,113.67-7.09,55.06-7.09,37.3-1.78,63.94,5.32,24.86-37.31,30.19-46.19,0-8.9-31.97-14.21-35.51-14.21-35.51M1560.55,508.13c5.32,19.53,12.44,31.97,8.87,39.08M1313.62,792.31c-14.21,10.65,5.32,31.97,21.34,30.19M1310.08,847.35c15.98,0,33.75,23.09,33.75,23.09M1368.69,836.71c5.32,23.09-21.31,49.73-3.54,76.37,15.98,26.64-3.57,23.09-15.98,37.29-10.66,14.2-42.66,31.97-39.09,69.26,1.78,39.08-32,35.52-58.62,39.08M1269.21,1035.61c-12.44-30.19-51.53-110.11-60.39-117.22M1651.13,373.15c8.9,10.66,19.56,37.3,17.76,46.19M1693.78,401.58c-1.78-12.44-7.09-37.3-7.09-37.3-7.12,17.76-53.29,15.98-39.09-12.43s53.29-31.97,62.19-3.55c7.09,30.19-30.22,76.37-55.07,90.58-26.65,14.2-76.4,23.09-87.07,37.29-8.87,10.66-30.19,40.84,32,31.97,56.85-8.88,74.6-23.09,74.6,3.55,0,24.86-46.19,19.53-81.72,28.42-28.42,7.11-101.26,26.64-165.21,63.94-63.94,39.08-140.33,103.01-161.64,129.66-19.56,26.64-60.41,47.95-33.77,60.39,39.09,21.32,37.31,53.28,56.85,58.61M1002.75,987.66c-10.66,1.78-44.41,31.97-44.41,49.73,0,19.53,0,24.86,5.33,28.42,3.55,5.33,47.96-17.76,51.52-37.3-1.78,14.21,1.78,42.63,17.76,55.06,15.99,14.21,39.09-24.86,40.87-40.84,3.54,14.21,3.54,40.84,30.19,53.28,26.65,10.66,31.97-40.84,35.54-51.5,5.32,21.32,19.53,39.06,33.75,40.87,14.21,1.78,21.31-42.64,21.31-51.52,7.12,17.76,24.88,35.52,37.31,42.63,10.66,7.09,14.21-15.98,8.9-23.1M1054.25,1142.18c5.34,0,26.65-5.32,16-5.32-26.65-3.54-30.21-33.75-33.76-47.95-1.78,7.09-30.21,47.95-47.96,39.06-17.77-7.09-23.09-46.19-24.86-62.15-12.44,10.66-39.08,71.05-47.96,35.51-8.88-35.51,47.96-58.6,42.63-63.93M1070.26,1136.87c21.31,1.78,30.19-28.42,35.51-37.31,7.12,17.76,21.34,37.31,35.54,40.85s33.75-39.09,33.75-47.95c10.66,21.31,26.65,44.41,42.63,44.41s14.21-49.73,17.76-58.62M1242.56,1062.26c14.21,15.98,39.09,69.26,31.97,78.14-7.09,8.9-35.51-15.98-40.85-26.65M913.92,1088.9c-8.88,10.64-24.86,35.51-24.86,46.19M926.36,1110.21c0,8.9-7.11,23.1-1.78,30.19M983.2,1126.19c-5.33,8.9-7.11,12.44-14.21,14.21M995.64,1127.97c3.55,8.9,3.55,12.44,8.88,15.98M1008.07,886.43c1.78,15.98-10.66,47.95-17.77,62.16-7.11,12.43-7.11,33.75-7.11,46.17M961.88,850.91c5.33,10.66,5.33,46.19-3.55,67.49-7.11,19.53-35.52,74.59-3.55,113.67M967.21,868.66c-8.88-1.78-30.21-7.09-42.63-3.54M905.05,843.8c-12.44,3.55-30.21,12.43-28.42,39.08,1.78,26.64,0,65.72-15.98,74.59-15.99,10.65-49.74,1.78-49.74-31.97-1.78-35.52-24.86-35.52-37.3-46.19,1.78,0-42.63-46.17,0-51.5,10.66-1.78,26.65,12.44,28.42,19.53,0,5.33,30.21,19.53,35.52-1.78,5.33-21.31,26.65-37.3,40.85-39.08,14.21-1.78,28.43-19.53,1.78-51.5-46.2-56.81-131.46-127.86-202.52-158.05-65.73-28.42-166.99-56.83-216.72-62.15-24.86-3.55-3.55-28.42,7.11-26.64,15.98,0,62.16,8.88,74.6,7.11,10.66-1.78,42.63-21.32,12.44-40.84-30.21-21.32-88.83-37.29-103.03-47.95-12.44-12.43-53.29-30.19-31.97-78.14,19.53-46.17,65.73-14.21,63.95,3.55-1.78,19.53-19.53,39.08-37.3,19.53-7.11,10.65-8.88,24.86-15.98,33.75M482.25,358.95c-1.78,19.53-24.86,63.94-30.21,67.49M418.29,357.18c-7.11,15.98-8.88,31.97-12.43,51.5-1.78,17.77-15.99,26.64-24.86,40.85-8.88,12.43-3.55,30.19,3.55,42.62-10.66-19.53,19.53,35.52,65.73,47.95M450.28,527.68c-7.11,17.76,0,35.52-1.78,49.73s5.33,35.51,33.76,39.08c31.97,3.54,127.91,28.4,179.41,56.83,37.3,21.31,97.7,62.15,117.25,85.25,19.55,21.31,47.96,53.28,51.52,69.26,3.55,15.98-3.54,24.86-10.65,28.42M809.11,804.74c-8.88,3.55-12.43,12.44-19.53,15.98-7.11,3.55-19.53,3.55-26.65,12.44M567.52,486.82c0,12.43,7.11,24.86,0,35.52-7.11,12.43-8.88,31.97-8.88,31.97M825.1,856.24c8.88,7.11,30.21,24.86,30.21,33.75s0,21.31,1.78,28.42c0,7.11,8.88,15.98,17.77,10.66M922.8,863.35c-1.78,10.65-3.55,51.5-8.88,62.15-5.33,12.43-28.42,31.97-53.28,31.97M1304.73,1143.95v495.51c0,21.34-7.09,35.51-33.75,35.51h-175.88c-21.31,0-14.21,8.9-23.07,19.56-5.34-10.66-3.54-19.56-23.1-19.56h-175.87c-26.65,0-35.54-10.64-40.85-30.17v-500.85h472.53,0ZM833.99,1325.1h470.74M944.13,1326.9v348.08M979.65,1326.9v348.08c-12.43-5.32-15.98,49.73,28.42,17.78M1016.95,1326.9v348.08M1052.48,1326.9v348.08c0,15.98-14.2,67.51,19.56,63.94,21.31-1.78,21.31-30.17,17.76-62.16M1089.79,1326.9v349.86M1127.1,1326.9v348.08M1162.62,1326.9v348.08M1196.39,1326.9v348.08M1231.9,1326.9v348.08M1265.67,1326.9v348.08M1384.67,1316.24c5.32,8.87,5.32,30.19-3.54,33.75-12.44,1.78-31.97-12.44-47.98-31.97-17.76-23.07-23.07-44.41-26.65-51.5M1342.04,1326.9c0,1.78,14.21,67.48-33.75,30.19M1302.96,1165.26c15.98,14.21,85.26,14.21,117.26-40.83,31.97-55.06,42.63-119,23.07-143.86-21.31-26.64-81.72-67.48-40.85-118.98,40.85-53.28,168.79-172.28,236.27-220.23,71.07-49.73,190.08-122.55,278.9-142.08,26.65-5.33,74.63-15.98,65.73,0-28.42,47.95-140.33,99.45-209.62,145.64-14.21,10.66-204.3,113.67-223.83,133.21,3.54,19.53-26.65,30.19-55.07,47.95,23.1-5.33,40.85,14.21-17.76,46.17,28.42-5.33,37.29,17.77,8.87,42.63,16,1.78,30.22,14.21,14.21,35.52,10.66,5.33,26.65,19.53,10.66,37.29,8.9,3.55,21.34,19.53,0,31.97,19.56,5.33,17.76,23.09,3.54,28.42,23.1,5.32,10.66,30.19-3.54,37.3,7.12,12.41,12.44,28.39-7.09,35.51,7.09,12.44,1.78,31.97-14.21,28.42,0,7.09,5.32,30.17-21.34,26.63,0,12.44-5.32,35.51-26.65,30.19-1.78,19.53-17.76,24.88-33.75,19.53-10.66,19.56-19.56,24.88-42.63,12.44-3.57,7.12-32,28.42-46.2,7.12l-15.98,15.98M1661.81,708.82c23.1-7.11,46.19-7.11,55.07,1.78,10.66,8.88-21.34,44.4-30.19,51.5-8.9,7.11-170.53,78.14-174.11,83.47M1635.16,786.98c8.9-1.78,42.63-8.88,49.75,3.54,7.09,12.44-16,33.76-32,42.63s-145.65,49.73-149.2,53.28M1615.62,847.35c10.66-1.78,46.19-1.78,49.73,5.33,5.34,7.11-3.54,30.19-33.75,42.63-31.97,10.66-133.24,23.09-133.24,23.09M1608.5,902.41c14.21,0,40.85,3.55,39.09,12.43,0,8.88-17.76,31.97-51.53,35.52-33.75,5.33-85.26,3.55-90.58,3.55M1606.74,948.6c12.44,0,35.54,7.09,31.97,15.98-5.32,10.66-24.85,24.86-49.73,24.86-32,0-71.06-1.78-74.63-3.54M1606.74,987.66c12.44,1.78,35.54,8.88,31.97,15.98-5.32,12.44-24.85,24.86-49.73,26.64-32,0-63.97-5.33-69.28-7.11M1599.65,1030.29c10.64,1.78,37.29,17.77,31.97,24.86-7.12,12.43-26.65,17.77-51.53,15.98-30.19-3.55-42.63-5.33-49.73-8.88M1592.52,1072.92c10.66,1.78,37.31,19.53,33.77,26.63-7.12,12.44-19.56,19.56-44.43,15.98-30.19-1.78-55.07-14.21-63.94-17.76M1583.63,1117.31c10.66,3.57,32,23.1,26.65,30.19-7.09,10.66-28.42,12.44-53.29,7.12-30.19-7.12-40.83-10.66-47.95-15.98M1569.43,1158.16c10.66,5.32,33.77,28.42,28.42,35.51-8.87,12.44-33.75,14.21-60.39,3.57-30.19-14.21-40.85-21.34-47.95-26.65M1549.89,1202.57c8.9,7.09,19.53,35.51,12.44,40.83-10.66,7.12-33.77,1.8-56.85-10.64-24.88-14.21-35.54-26.65-42.63-33.75M1519.7,1239.86c8.87,7.12,17.76,30.19,10.66,37.29-10.66,7.12-32,1.8-53.29-14.19-24.88-17.76-37.31-30.19-42.63-37.31M1477.07,1262.96c7.09,7.09,15.98,37.29,7.09,42.61-10.66,7.12-33.75,1.78-53.27-15.98-23.1-21.31-35.54-39.06-40.88-44.38M1429.08,1289.58c7.12,8.9,12.44,37.31,5.34,42.63-12.44,5.32-37.31,0-53.29-21.31-21.34-26.65-31.97-47.95-37.31-55.07M1304.73,1380.17c7.12,14.21,17.78,58.62,32,79.92,10.66,14.21,33.75,26.65,33.75,26.65,23.1-3.57,21.34-37.31,23.1-46.19M1343.82,1339.31c7.12,15.98,33.77,74.6,44.41,92.36,12.44,15.98,33.77,35.51,55.07,31.97,19.56-5.32,14.21-42.61,12.44-46.19M1437.98,1300.25c7.09,7.09,60.39,78.14,72.83,87.01,7.12,7.12,10.66,42.63-12.44,47.95-28.42,7.12-49.73-28.39-62.16-42.61-10.66-14.21-35.54-60.39-40.85-69.28M1510.8,1387.26c15.98,10.66,35.54,15.98,51.53,10.66s8.9-35.51,5.32-47.95M1482.39,1270.05c15.98,14.21,30.19,33.75,47.98,47.95,17.76,15.98,31.97,28.42,46.19,37.29,15.98,8.9,35.51,10.66,42.63,5.34,8.9-7.12,3.54-35.54-1.78-46.19M1519.7,1239.86c15.98,12.44,31.97,30.19,49.73,42.63,19.56,14.21,35.54,24.85,49.75,31.97,17.76,8.87,37.31,8.87,44.41,1.78,7.12-8.9,0-35.51-5.32-46.19M1553.43,1204.35c15.98,10.66,33.77,26.65,53.29,39.06,21.34,12.44,37.31,19.56,53.29,26.65s37.31,5.32,42.63-1.78c7.12-8.9-1.78-35.51-8.9-46.19M1578.31,1159.94c17.76,8.9,44.41,24.88,63.97,35.51,23.07,8.9,39.06,15.98,55.07,21.34,17.76,5.32,39.06,0,42.63-7.12,7.09-8.87-5.34-33.75-14.21-44.41M1596.07,1119.1c19.56,7.09,51.53,23.07,72.83,30.19,23.1,7.09,40.88,10.64,58.64,12.41s37.29-5.32,40.85-12.41c5.32-10.66-17.78-39.09-28.42-47.98M1599.65,1072.92c19.53,8.87,65.7,15.98,87.04,19.53,24.88,3.54,49.73,7.09,65.7,7.09,19.56,0,37.31-8.87,40.88-17.76,3.54-10.65-19.56-33.73-30.22-39.06M1604.96,1030.29c19.53,1.78,81.72,12.43,104.82,12.43s40.83,0,58.62-1.78c19.53-3.55,35.51-15.98,37.29-24.86,1.78-12.44-19.53-30.19-31.97-33.75M1612.06,987.66c19.56,0,76.4,1.78,99.5,1.78,24.85-1.78,42.63-3.54,58.62-7.09,17.76-3.55,33.75-15.98,35.51-24.86,0-12.43-21.31-28.42-33.75-31.97M1615.62,946.82c19.53-1.78,78.14-10.65,101.26-14.21,23.1-5.32,44.41-8.88,60.39-15.98,21.34-7.09,28.42-28.4,28.42-37.29,0-12.43-31.97-19.53-44.41-23.09M1617.4,900.63c19.53-5.33,81.72-24.86,103.02-30.19,23.1-7.09,35.54-14.21,51.53-21.31,15.98-7.11,26.65-26.64,23.1-33.75-7.12-12.44-26.65-12.44-39.09-14.21M1622.72,847.35c24.88-7.09,111.92-35.52,133.24-46.17,21.31-8.88,40.85-19.55,55.07-26.64,17.76-7.11,37.29-37.29,35.51-46.17-1.78-10.66-40.85-14.21-53.27-15.98M1686.69,762.12c28.42-10.66,103.02-47.95,124.35-60.39,19.53-10.65,47.95-23.09,60.39-33.75,17.76-17.76,23.1-39.08,23.1-47.95-1.78-12.43-30.19-21.31-53.29-15.98M1331.38,1447.65c1.78,15.98-12.44,35.51-15.98,40.85-5.32,7.09-10.66-8.9-10.66-8.9M832.21,1168.82c-14.21,14.21-83.5,15.98-115.47-39.09-31.97-55.04-44.41-118.98-24.88-145.64,21.32-24.86,81.72-65.7,40.85-118.98-42.63-51.5-170.53-168.72-239.81-216.69-71.06-49.73-234.49-133.2-323.31-150.97-26.65-3.55-15.99,26.64-1.79,37.3,19.55,14.2,177.65,103.01,191.86,113.67,15.98,14.21,204.29,115.44,223.83,134.98-3.55,19.53,26.65,31.97,55.07,47.95-23.1-5.33-40.85,15.98,17.77,46.17-26.65-5.33-37.3,17.77-7.11,42.63-15.99,1.78-30.21,14.21-14.21,35.52-10.65,5.33-26.64,19.53-10.65,37.3-8.88,3.55-21.32,19.53,0,31.97-17.77,5.33-15.99,24.86-1.78,28.4-24.86,7.11-12.43,31.98,3.55,37.3-8.88,12.44-14.21,28.42,7.11,35.51-8.88,14.21-1.78,31.97,14.21,28.42,0,7.09-5.33,30.19,21.32,26.63,0,12.44,5.33,35.54,26.65,30.19,1.78,19.56,17.77,24.88,33.75,19.56,10.66,17.76,21.32,23.07,42.64,12.41,3.54,7.12,33.76,26.65,47.96,5.34,3.55,5.32,12.44,12.44,12.44,12.44M469.82,715.93c-21.32-7.11-49.74-8.88-55.07,1.78-12.44,26.64,19.53,40.85,31.97,51.52,7.11,7.11,170.54,76.37,175.87,81.7M498.24,794.07c-8.88-1.78-42.64-8.88-49.74,3.55s15.99,33.75,31.97,42.63c15.99,8.88,145.66,47.95,151.01,51.5M519.56,854.46c-12.44-1.78-46.2-1.78-51.52,5.33-3.55,7.11,5.33,30.19,35.52,40.84,30.21,12.44,133.23,24.86,133.23,24.86M524.89,907.74c-12.44,0-40.85,5.33-39.08,14.21s19.55,31.97,53.29,35.52c33.76,3.55,85.28,3.55,88.83,1.78M526.67,953.93c-10.66,1.78-33.76,8.88-30.21,15.98,5.33,12.43,24.86,24.86,49.74,24.86,31.97,1.78,69.28-1.78,74.6-3.55M526.67,994.77c-10.66,1.78-33.76,7.11-30.21,15.98,5.33,12.43,26.64,24.86,51.52,24.86,31.97,1.78,62.18-5.33,67.51-7.11M535.54,1037.4c-10.66,1.78-35.52,14.2-31.97,24.86,5.33,12.44,28.42,17.76,53.29,14.21,30.21-1.78,42.63-5.33,49.74-8.9M542.65,1078.24c-10.66,3.54-37.3,19.53-31.97,28.42,5.33,10.64,17.77,17.76,42.64,15.98,30.19-3.54,56.85-15.98,63.95-19.53M547.98,1122.65c-10.66,3.54-28.42,23.07-21.32,30.19,7.11,10.64,28.42,14.21,53.29,7.09,28.42-7.09,40.85-10.64,47.96-15.98M565.75,1163.48c-8.88,7.12-28.42,33.77-21.32,40.85,8.88,10.66,28.42,10.66,55.07-1.78,28.43-14.21,40.85-21.34,47.96-26.65M587.06,1207.89c-8.88,7.12-19.55,35.51-12.44,40.85,10.66,8.87,33.76,1.78,56.85-10.66,26.64-14.21,37.3-26.65,42.63-33.75M617.26,1245.2c-8.88,7.09-15.99,31.94-8.88,37.29,10.66,7.09,30.21,1.78,53.29-14.21,23.1-17.76,35.52-31.97,40.85-37.29M661.67,1268.28c-8.88,8.87-15.98,37.29-8.88,42.63,12.44,7.09,35.52,1.78,55.07-15.98,21.32-21.34,33.76-39.09,39.08-46.19M707.86,1294.93c-7.11,7.09-12.43,37.29-3.55,42.61,10.66,5.34,37.3-1.78,53.29-21.31,19.55-26.65,31.97-47.95,35.52-55.04M832.21,1385.48c-7.11,14.21-17.77,56.85-30.21,78.14-10.66,19.53-24.86,28.42-31.97,26.65-24.88-1.78-23.1-35.51-24.88-44.41M796.69,1339.31c-7.11,15.98-35.52,78.14-46.19,95.91-10.66,15.98-33.76,37.31-53.29,31.97-21.32-3.54-15.98-40.83-14.21-46.16M698.97,1303.8c-7.11,8.9-58.62,79.92-71.06,88.82-8.88,7.09-8.88,42.61,12.43,47.95,28.42,7.09,49.74-28.42,62.18-42.63,10.66-15.98,35.52-60.39,40.85-69.26M627.92,1392.6c-15.99,10.64-35.54,17.76-51.52,10.64-15.99-5.32-8.88-35.51-5.33-46.16M654.56,1275.37c-14.21,15.98-28.42,33.77-46.19,47.95-17.77,15.98-31.97,28.42-46.19,37.31-15.99,10.64-35.52,12.44-42.63,7.09-8.88-8.87-5.33-35.51,0-47.95M617.26,1245.2c-15.99,12.41-31.98,30.17-49.74,44.38-19.53,14.21-33.75,23.1-49.74,31.97-15.99,8.9-37.3,8.9-42.64,1.78-8.88-8.87-1.78-35.51,5.33-46.19M583.52,1209.67c-15.99,12.44-33.76,28.42-53.29,39.09-21.32,12.44-37.3,21.31-51.52,28.39-17.77,7.12-39.09,5.34-44.41-1.78-7.11-8.87,1.78-40.83,8.88-51.5M558.64,1165.26c-17.76,10.66-44.41,26.65-63.95,35.54-23.09,10.64-39.08,17.76-55.07,23.07-17.76,5.32-39.08,1.78-42.63-7.09-12.43-17.76,15.99-44.41,17.77-47.95M540.87,1124.43c-19.55,7.09-51.52,24.88-74.62,31.97-23.09,7.09-35.52,10.66-51.52,12.44-17.77,3.54-42.64-3.57-46.2-12.44-5.33-10.66,15.99-39.09,26.65-47.95M535.54,1078.24c-19.53,10.66-63.95,17.76-87.04,21.31-23.1,5.34-49.74,7.12-65.73,7.12-17.77,1.78-37.3-8.9-39.08-15.98-3.55-10.66,17.77-33.75,30.21-40.85M530.21,1037.4c-19.53,1.78-81.71,14.2-104.81,14.2s-40.85-1.78-58.62-3.54c-19.55-3.55-33.76-12.44-35.52-24.86-1.78-10.66,17.77-28.42,30.19-33.75M523.1,992.99c-21.32,1.78-76.39,3.55-99.48,3.55-24.86-1.78-42.63-1.78-58.62-5.33-17.77-3.55-33.75-15.98-35.52-26.64-1.78-10.65,26.65-30.19,39.08-33.75M519.56,953.93c-19.55-1.78-78.17-10.66-101.27-14.21-23.09-3.54-46.19-8.88-60.39-14.2-21.32-8.88-31.98-23.09-26.65-35.52,3.54-10.66,28.42-21.32,40.85-24.86M516.01,907.74c-19.55-5.33-79.95-24.86-103.03-30.19-23.1-7.09-35.52-14.2-49.74-19.53-17.76-8.88-35.52-21.31-30.19-30.19,5.33-10.65,31.97-15.98,44.41-17.76M510.68,852.69c-23.1-5.33-111.92-33.75-133.23-42.62-21.32-10.66-40.85-21.32-55.07-26.64-21.32-8.88-39.08-24.86-35.52-46.17,0-12.43,33.75-19.55,53.29-17.77M452.05,769.21c-10.66-3.55-95.92-39.08-126.13-56.83-21.32-10.66-39.08-23.09-53.29-31.97-17.77-8.88-33.76-40.85-30.21-49.73,5.33-17.77,53.29-8.88,65.73-8.88M803.78,1328.68c-7.09,8.87-12.43,39.06-3.54,42.61,10.66,5.34,15.98,5.34,30.19-14.19M755.82,1318c-7.09,7.09-12.43,37.29-3.55,40.85,10.66,7.09,35.52-8.9,51.52-30.19,21.32-26.65,23.1-60.39,28.43-67.48M809.11,1451.2c1.78,21.34,17.77,37.31,23.1,40.85M832.21,1511.59c-53.29-7.09-72.84,23.1-76.39,26.65-7.09,12.44-8.88,17.76,1.78,17.76,14.21-1.78,35.52-5.32,44.41-5.32s0,5.32-5.33,8.87c-5.33,5.32-21.32,12.44-26.64,23.1-7.11,12.41-8.88,7.09,3.54,12.41,14.21,3.57,28.42-1.78,39.08-3.54,12.44-1.78,3.55,0-1.78,5.34-7.11,7.09-26.65,19.53-30.21,30.17-3.54,10.66-8.88,14.21-7.11,19.56,1.78,5.32,14.21,7.09,23.1,5.32,0,0,35.54-15.98,35.54-14.21,5.32-8.87-24.88,26.65-31.98,39.06-7.11,12.44-5.33,17.78-5.33,23.1s14.2,1.78,24.86-1.78c19.53-3.54,49.74-14.21,49.74-23.1v-348.08M755.82,1538.24c-14.21,1.78-28.42,14.21-40.85,24.85-14.21,10.66-21.32,19.56-28.42,35.54-7.11,15.98,1.78,8.87,8.88,8.87s21.32-3.54,21.32-3.54M771.81,1570.21c-14.21,3.54-30.21,7.09-39.09,17.76-10.65,12.44-15.98,19.53-19.53,30.19-3.55,8.87-3.55,14.21-3.55,17.76,0,1.78,14.21-1.78,19.53-3.54,3.55-1.78,17.77-3.54,21.32-5.34M778.92,1600.41c-12.44,5.32-26.65,24.85-35.52,33.75-8.88,8.87-10.66,19.53-14.21,30.19-5.33,10.64,0,12.41,0,17.76,0,3.54,5.33,3.54,14.21,1.78,8.88-1.78,12.43-3.54,19.53-8.9M782.47,1653.67c-5.33,5.32-19.55,15.98-24.86,28.42-5.33,14.21-3.55,15.98-7.11,26.65-1.78,12.41,10.66,8.87,19.55,7.09,8.88-1.78,47.96-24.88,30.19-10.66-7.11,7.12-12.44,15.98-17.77,24.88-5.33,10.66,0,12.44,12.44,10.66,40.85-5.34,33.75-8.9,55.07-21.34,15.99-8.87,51.52-44.41,56.85-44.41v-348.08M722.07,1598.63c-14.21,7.09-44.41,28.39-51.53,49.73-7.11,14.21,0,8.87,0,14.21s14.21,3.54,23.1,0c15.98-3.57,30.19-12.44,39.08-10.66M686.55,1598.63c-8.88,5.32-39.09,21.31-47.96,42.61-7.11,21.34-7.11,12.44-7.11,17.76,1.78,7.12,8.88,7.12,23.09,0,7.11-5.32,8.88-8.87,15.98-10.64M674.11,1666.11c-10.66,12.44-15.99,23.07-19.55,31.97-1.78,7.09,5.33,12.44,15.98,8.87,8.88-1.78,17.77-5.32,26.65-7.09s39.09-23.1,31.97-17.76c-7.09,3.54-44.41,31.97-47.96,42.61-3.55,12.44-7.11,16,5.33,14.21,15.98-1.78,35.52-10.64,44.41-14.21,5.33-3.54,17.77-10.64,21.32-10.64M730.96,1724.71c-8.88,8.9-15.98,10.66-21.32,17.78-7.11,7.09-8.88,8.87,7.11,10.64,15.98,3.57,53.29,0,63.95-14.21M631.48,1658.99c-10.66,5.34-23.1,12.44-31.98,21.34-10.66,8.87-14.21,12.44,0,15.98,12.44,1.78,35.52,1.78,44.41,1.78s14.21-5.32,14.21-5.32M654.56,1698.08c-10.66,0-31.97,15.98-42.63,31.97-8.88,14.21,0,14.21,12.44,14.21,14.21,0,37.3-5.34,56.85-19.56M707.86,1747.81c-5.33,3.54-23.09,14.21-37.3,12.44M592.39,1687.42c-8.88,0-76.38,0-87.04-3.54M677.66,1760.25c-15.99,0-51.52-3.54-65.73-15.98,3.55,3.54-83.5-3.54-87.04-3.54M436.06,1648.36c3.54-15.98,37.3-46.19,67.51-21.34,24.86,19.56-1.78,65.73-12.43,65.73M448.5,1655.45c-14.21-10.64-37.3-7.09-47.96,3.54-12.43,14.21-40.85,40.85-44.41,51.53-10.66,23.07,10.66,40.83,26.64,37.29M462.72,1699.86c-8.88-1.78-10.66-7.09-24.86-1.78s-49.74,39.06-51.52,46.19c-3.55,5.32-12.44,24.85-3.55,33.75,8.88,10.64,28.42,12.44,35.52,10.64M452.05,1696.3c7.11-5.34,7.11-19.56,1.78-19.56-3.54,0-10.65,5.34-12.43,5.34-1.78-1.78-15.99-8.9-3.55-21.31,12.44-10.66,28.42-1.8,35.52,8.87,8.88,12.44-7.11,5.32-19.55,7.09M503.57,1699.86c12.44-3.54-35.52-12.44-44.41,3.54-10.66,15.98,8.88,28.42,14.21,26.65,5.33-1.78,5.33-3.54,8.88-12.44,3.54-5.32,15.98-15.99,21.31-17.76h0ZM494.69,1731.83c-1.78-5.32-19.55-3.54-35.52,12.44-15.98,19.53-39.08,39.06-42.63,51.5s10.66,42.63,40.85,31.97c30.19-10.66,44.41-42.63,53.29-53.27,7.11-12.44,3.55-23.1,3.55-26.65,0,0-5.33,17.76-21.32,10.66-7.11-3.57-12.44-10.66-3.55-19.56,7.11-8.87,23.09-30.17,17.77-23.07,1.78,5.32,10.66,15.98,7.11,31.97M1308.31,1502.73c51.5-5.34,83.5,26.63,87.04,31.97,8.9,10.64,8.9,17.76-1.78,17.76-12.44-1.78-33.77-5.34-42.63-5.34s-1.78,5.34,3.54,8.9c5.32,5.32,21.34,12.44,28.42,23.07,5.32,12.44,8.9,7.12-5.32,12.44-12.44,3.54-26.65-1.78-39.09-3.54s-1.78,0,3.54,5.32c5.34,7.12,24.88,19.53,28.42,30.19,5.34,10.66,8.9,14.21,7.12,19.53,0,5.34-14.21,7.12-23.1,3.57,0,0-35.54-14.21-33.75-12.44-7.12-8.9,24.85,26.65,31.97,39.06,7.09,12.44,5.32,17.76,5.32,23.1s-14.21,1.78-24.88-1.78c-19.53-3.57-40.83-14.21-47.95-21.34M1395.35,1534.69c14.21,1.78,28.42,14.21,42.63,23.07,12.44,10.66,19.53,21.31,26.65,37.29,7.09,15.98-1.78,8.9-8.9,8.9s-19.53-5.32-19.53-5.32M1381.13,1566.66c12.44,1.78,28.42,7.09,39.09,17.76,10.66,12.44,14.21,19.53,19.53,28.39,3.54,10.66,5.32,14.21,3.54,16-3.54,3.54-15.98,1.78-21.31,0-3.54,0-15.98-3.57-21.34-7.12M1368.69,1593.29c12.44,5.34,31.97,28.42,39.09,35.54,8.87,8.87,12.44,21.31,15.98,31.97,3.54,8.87,1.78,12.41,0,15.95-1.78,5.34-5.32,5.34-14.21,3.57s-14.21-3.57-21.34-8.9M1370.47,1650.13c5.34,5.32,17.76,15.98,23.1,28.42,7.09,14.21,5.32,14.21,8.87,26.63,1.8,10.66-10.64,7.12-19.53,7.12-21.34-1.78-35.51-19.53-30.19-10.66,5.32,8.9,12.44,14.21,17.76,24.88,5.34,10.64,0,12.41-12.44,10.64-40.85-8.87-35.51-10.64-58.62-21.31-17.76-7.09-47.95-24.88-58.62-37.29M1430.88,1595.06c14.19,7.12,42.61,26.65,51.5,47.95,7.12,15.98,0,8.9,0,15.98,0,5.34-14.21,1.8-24.88,0-14.21-5.32-31.97-8.87-39.06-15.98M1464.63,1595.06c10.66,5.34,39.09,19.56,47.95,40.85,7.12,14.21,7.12,19.53,7.12,19.53-1.78,7.12-8.9,5.34-21.34-1.78-7.09-3.54-10.64-8.87-15.98-10.66M1478.83,1662.57c8.9,10.64,15.98,21.31,17.76,30.19,3.54,8.87-3.54,12.41-14.21,10.64s-19.53-5.32-26.65-7.09c-8.87-3.54-35.51-19.56-31.97-17.76,7.12,3.54,40.85,31.97,47.95,42.61,5.34,8.9,5.34,14.21-5.32,14.21-15.98-1.78-37.31-10.66-44.41-14.21-5.34-3.54-14.21-10.64-19.56-12.41M1421.99,1721.15c10.66,7.12,15.98,8.9,21.31,15.98,7.12,8.9,8.9,8.9-7.09,12.44s-53.29-1.78-63.97-14.21M1519.7,1651.9c12.44,3.54,23.1,14.21,33.75,23.07,10.66,8.9,12.44,12.44,0,15.98-12.44,3.57-31.97,3.57-40.85,3.57-8.87-1.78-14.21-1.78-14.21-1.78M1496.59,1692.76c12.44,1.78,33.77,17.76,44.41,33.75,8.9,14.21,0,14.21-12.44,14.21-14.21,0-37.29-5.34-56.85-19.56M1560.56,1682.1c8.87,0,65.73,3.54,76.38,0M1638.7,1735.37c-3.54,1.78-101.26,7.12-97.7,5.34-19.53,14.19-44.41,12.41-60.39,14.19-14.21,0-28.42-5.32-33.75-8.87M1709.79,1643.01c-3.57-15.98-19.56-44.38-58.64-26.63s-14.21,69.26-3.54,69.26M1709.79,1646.58c17.76-10.66,31.97-3.57,42.61,7.09,12.44,12.44,39.09,39.09,44.43,49.73,10.64,24.88-10.66,42.63-26.65,37.31M1690.23,1694.54c8.9-1.78,8.9-7.12,24.88-1.78,14.21,5.32,47.95,39.06,51.53,44.38,3.54,7.12,12.41,24.88,3.54,35.54-8.9,10.64-28.42,10.64-35.54,10.64M1699.12,1690.96c-10.66-5.32-7.12-19.53-5.34-19.53,12.44,1.78,10.66,5.32,14.21,5.32,1.8-1.78,15.98-10.64,7.12-23.07-14.21-24.85-47.98,8.9-46.2,7.12-8.87,12.41,12.44,5.32,24.88,10.64M1651.14,1694.54c-14.21-3.57,32-12.44,42.63,3.54,10.66,15.98-8.87,28.42-14.21,26.63-7.09-1.78-7.09-3.54-10.66-10.64-3.54-7.12-14.18-17.77-17.76-19.53h0ZM1658.26,1726.5c1.78-5.34,19.53-3.57,35.51,12.41,16,19.56,39.09,37.31,42.63,51.53,3.57,12.41-8.87,40.83-40.85,31.97-30.19-10.66-42.63-44.41-53.27-53.29-10.66-10.64-1.8-23.07-1.8-28.39,0,0,1.8,19.53,19.56,12.41,7.09-3.54,10.66-10.64,3.54-19.53-7.09-8.9-15.81-20.75-21.31-26.65-3.57,10.66-7.12,21.34-1.8,33.77M1091.57,1696.31c14.21,14.21,79.95,83.47,51.53,104.77-32,23.1-69.28-88.79-51.53-67.48M1119.99,1673.21c10.66,8.9,37.31,37.31,19.56,51.5-14.21,10.66-24.88-1.78-24.88-1.78M1137.74,1690.96c16,14.21,46.2,55.07,37.31,72.83-10.66,12.44-28.42-3.54-35.51-10.66M1171.51,1674.98c7.09,8.9,12.44,23.1,1.78,30.19-8.9,8.9-24.88-3.54-30.19-7.09M1178.61,1674.98c8.9,8.9,32,31.97,26.65,46.19-5.32,12.44-21.31,15.98-40.85,1.78M1054.25,1728.28c-3.54,14.21-17.76,99.45,21.34,95.91,33.75-1.78,10.66-90.58,10.66-90.58M1016.95,1674.98c-8.88,23.1-5.33,51.53-1.78,58.62,10.65,15.98,30.19-1.78,33.76-12.44M972.56,1674.98c-15.99,8.9-37.3,40.85-24.88,49.73,10.66,8.9,33.76,3.57,53.29-26.63M1011.62,1689.2c-10.65,8.9-53.29,55.07-37.3,74.6,17.77,19.53,49.74-31.97,46.19-24.88-7.11,12.44-40.85,56.85-8.88,63.94,17.77,3.57,33.76-19.53,37.31-24.85M1198.17,1731.83c101.25,72.83,149.23,191.81,151.01,195.35,24.85,44.41-81.72-44.38-94.16-53.27M1175.05,1763.79c88.84,87.01,120.8,225.56,122.58,229.1,15.98,46.19-74.6-56.82-85.26-67.48M1151.98,1785.1c65.7,90.58,81.7,269.95,81.7,259.32,1.78,51.5-63.94-78.14-71.06-88.82M1109.32,1786.87c69.28,131.45,55.07,287.72,53.29,298.38-5.32,49.73-47.95-74.6-55.07-83.47M956.57,1730.05c-101.25,72.8-154.56,197.13-158.1,200.68-23.1,44.41,87.04-47.92,99.48-56.82M974.32,1767.34c-88.83,87.04-120.79,225.56-122.58,229.12-15.99,46.16,72.84-56.85,85.26-67.51M997.42,1788.64c-67.51,90.58-81.71,269.95-81.71,259.32-1.78,49.73,65.73-79.92,72.84-88.82M1038.28,1790.44c-69.28,131.42-53.29,287.72-51.52,298.36,5.33,49.73,47.96-74.58,55.07-85.24M1056.06,1813.51c-5.34,21.31-19.55,177.59-14.23,209.57,3.55,31.97,14.23,111.89,31.98,115.43,17.76-3.54,30.19-87.01,33.75-118.98,5.34-31.97-8.87-188.27-15.98-207.79M514.23,1770.88c12.44,7.12,42.63,53.29,53.29,90.58,12.44,39.09,37.3,115.43,37.3,133.2s-8.88,10.66-12.44,5.34c-5.33-5.34-23.09-15.98-31.97-19.53-10.66-1.8-33.75-10.66-31.97-40.85,3.55-30.19,5.33-46.19-1.78-85.24-3.55-14.21-19.55-47.95-26.65-56.85M528.43,1939.62c5.33-15.98,15.99-19.53,24.88-19.53,7.09,0,21.31,7.09,26.64,19.53,5.33,10.66,17.77,28.42,17.77,37.29s3.55,17.76,1.78,24.88M400.54,1658.99c-12.43-7.09-23.09-7.09-28.42-15.98-5.33-7.09-3.55-17.76,8.88-17.76,10.66,0,14.21,1.78,17.77-5.32,5.33-5.32,5.33-24.88-10.66-21.31,3.55-10.66,10.66-15.98,15.98-17.76,7.11,0,47.96-28.42,56.85-49.75,8.88-21.31,8.88-35.51,14.2-42.61,3.55-7.12,14.21-31.97,14.21-31.97-15.99,5.32-14.21,8.87-23.1,14.21-10.66,3.54-33.75,7.09-44.41,14.21-10.66,7.09-23.1,19.53-28.42,28.39M302.84,1591.51c0,10.66,8.88,21.31,15.98,21.31s5.33-8.87,5.33-14.19c-5.33,3.54-21.32,1.78-21.32-12.44,1.78-14.21,5.33-15.98,19.53-14.21,0-12.44-3.55-26.65-3.55-53.27,1.78-28.42,24.86-62.16,35.52-71.06,10.66-10.66,24.86-30.19,33.76-44.41,0,7.12-1.78,14.21,1.78,24.88,5.33,10.66,7.11,90.58,1.78,104.8-3.55,14.19-10.66,35.51-21.32,47.95-10.66,10.64-15.99,14.19-23.1,28.39s3.55,26.65,10.66,24.88c5.32-1.78,7.09-8.9,5.32-17.76-3.54-8.9-5.32-7.12,1.78-15.98v-15.98M308.17,1570.21c1.78-10.66,0-15.98-10.66-17.76s-10.66,1.78-14.21,8.87c3.55-14.21-1.78-14.21,8.88-23.07,10.66-8.9,19.55-44.41,24.86-62.16,3.55-17.76-14.2-94.13-14.2-102.99-12.44,12.41-23.1,28.39-35.54,44.38s-26.64,55.07-23.09,81.7c3.55,26.65,7.09,42.63,10.66,53.29,5.33,12.41,3.54,12.41,7.11,23.07-10.66-17.76-23.1-24.85-28.43-40.83-3.55-15.98-8.88-23.1-3.55-30.19,3.55-7.12,10.66-17.76,7.11-24.88-5.33-7.09-8.88-8.87-15.99-7.09-7.11,0-12.44,3.54-12.44,14.21M215.78,1452.98c10.75-.09,19.45-8.78,19.55-19.53,0-8.87-8.88-17.76-19.55-17.76-8.88,0-17.76,8.9-17.76,17.76,0,10.66,8.87,19.53,17.76,19.53ZM205.12,1447.65c-3.55,10.66-7.09,14.21-7.09,26.65s1.78,14.21,3.54,17.76M201.57,1492.06c-8.88-12.44-17.77-19.53-23.09-33.75-3.55-14.21,1.78-33.75,7.11-39.09,7.11-5.32,47.96-56.82,55.07-72.8,5.33-14.21,10.65-58.62,5.33-79.92-14.21,10.64-33.75,26.65-39.08,33.75-1.78-10.66-10.66-12.44-17.77-14.21s-19.53,3.54-21.32,14.21c-1.78,12.44,1.79,23.07,12.44,23.07-1.78,8.9,1.78,14.21-7.11,23.1-8.88,10.66-8.88,15.98-10.66,31.97-3.55,14.21,5.33,39.06,7.11,44.41M167.82,1355.29c-1.78-10.64-3.54-28.39,3.55-35.51M189.14,1286.05c8.88-8.9,44.41-56.85,26.64-129.65-14.21,10.66-53.29,44.41-58.62,76.38M146.5,1310.91c3.55-24.88,26.65-67.51-3.54-124.33-30.21-56.85-37.3-53.27-37.3-60.39-7.11,14.21-24.86,65.7-23.1,87.01,1.78,21.34,17.77,67.51,31.98,79.95,12.43,10.64,30.19,62.14,30.19,76.35-10.66-17.76-37.3-62.16-62.18-76.35-24.86-12.44-46.19-16-55.07-30.19-10.66-14.21-14.21-10.66-21.32-19.56,1.78,17.78,8.88,56.85,21.32,71.06,35.52,44.41,24.88,33.75,90.59,62.16,39.09,15.98,30.21,35.51,33.76,46.19-8.88,0-17.77-1.78-24.86-1.78,3.55-3.57,7.11-19.56-7.11-23.1-8.88-3.54-21.32,3.54-21.32,12.44-1.78,7.09,1.78,7.09,5.33,12.44-10.66-5.34-7.11-5.34-26.64-8.9-17.77-3.54-47.96,7.12-55.07,12.44,10.66,12.44,28.42,28.42,37.3,37.29,8.88,8.9,23.09,14.21,30.19,15.98M134.07,1476.08c8.88,0,17.77-7.09,17.77-17.76,0-8.9-8.88-17.76-17.77-17.76s-17.77,8.87-17.77,17.76c0,10.66,8.88,17.76,17.77,17.76ZM148.28,1468.98c10.66,3.54,23.1,10.64,31.97,24.85,8.88,14.21,26.65,33.75,28.42,40.85-10.65-8.9-49.74-46.19-78.16-51.53-26.65-5.32-67.51,1.8-85.26,14.21-15.99,14.21,5.33,5.34,14.21,10.66,10.66,3.54,24.86,19.53,33.75,24.88,8.88,3.54,55.07,23.07,88.83,12.41,39.08-12.41,56.85,30.19,63.95,39.09-14.21-7.12-21.32-10.66-28.42-12.44-1.78-10.66-3.55-21.31-17.77-19.53-14.21,0-17.77,3.54-17.77,15.98-1.78,12.44,8.88,15.98,14.2,15.98q8.88-1.78,14.21-3.54c14.21,7.09,51.52,23.07,60.4,33.75-17.77,0-44.41-1.8-62.18,5.32-19.53,5.32-55.07,21.31-58.62,40.85-3.55,21.31-19.55,23.07-21.32,28.39,8.88,3.57,58.62,8.9,83.5-3.54,21.31-10.66,53.29-42.63,67.49-49.73,10.66-7.09,23.1-5.32,30.21,0,7.09,7.09,12.43,5.32,17.76,10.66-8.88,5.32-19.53,14.21-19.53,10.64,0-8.87-3.55-21.31-15.99-17.76-14.21,3.54-17.76,17.76-5.33,24.88-7.11,5.32-23.1,10.64-24.86,14.21,1.78-10.66-10.66-19.56-17.77-12.44-7.11,5.32-15.99,7.09-10.66,17.76,3.55,8.9,7.11,1.78,12.44,5.32-5.33,5.34-39.08,24.88-42.63,47.95-1.78,21.34-3.55,46.19-10.66,51.5,17.77,0,90.59-33.75,95.92-60.36,5.33-24.88,19.55-65.7,37.3-62.16,15.98,1.78,10.66-12.44,17.77-7.12,7.11,3.57,28.42,15.98,31.97,23.1M185.59,1580.87c-12.44,0-51.52,7.09-60.4,17.76-8.88,12.41-26.64,10.64-30.19,12.41,10.66,8.9,39.08,35.54,67.51,30.19M130.52,1589.75c8.88,0,15.98-8.87,15.98-17.76,0-10.66-7.11-17.76-15.98-17.76-10.66,0-17.77,7.09-17.77,17.76,0,8.88,7.11,17.76,17.77,17.76ZM258.42,1760.25c-1.78,23.07,0,60.39,5.33,69.26,3.55,8.9,3.55,15.98,1.78,21.31,17.77-15.98,60.4-53.27,65.73-99.45s1.78-81.7,0-85.24"/>
  <path class="cls-5" d="M1846.55,1323.33l51.52-76.35-7.11,94.11-19.53-19.53-24.88,1.78ZM1741.75,1452.98l39.08-83.47,7.09,94.13-21.3-15.99-24.88,5.33h0ZM1793.27,1390.84l47.96-78.16-3.55,94.13-19.56-19.56-24.85,3.58Z"/>
  <path class="cls-5" d="M1858.99,1381.94l55.07-72.8-12.44,94.11-17.76-21.31h-24.88ZM1951.37,1254.07l62.16-69.26-21.31,94.13-15.98-23.11-24.88-1.76ZM1995.78,1287.81l63.95-67.48-24.88,92.36-14.2-23.1-24.88-1.78ZM2001.1,1357.09l74.63-55.07-39.09,87.01-10.66-24.85-24.88-7.09h0ZM2008.22,1410.36l69.27-47.95-37.3,74.58-8.9-21.3-23.07-5.33h0ZM1933.62,1509.81l79.92-46.17-47.95,81.7-8.9-26.63-23.07-8.9h0Z"/>
  <path class="cls-1" d="M1766.63,1447.65l-37.31,193.59M1693.78,1820.63l-15.98,63.94M1873.2,1323.33l-126.13,323.26M1676.01,1809.97l-30.19,74.6M1764.83,1666.11l136.79-88.82M1631.61,1753.12l-83.5,53.29-26.65-5.34-71.06,58.62,31.97,1.78-3.54,19.53M1974.44,1255.84l-222.06,397.83,264.71-364.09M2022.42,1369.5l-211.39,236.22M1912.28,1458.32l-79.95,104.77M1647.59,1779.78l-40.85,71.04"/>
  <path class="cls-5" d="M1922.94,1353.53l63.94-51.5-30.19,76.38-12.44-21.31-21.31-3.57h0ZM1892.75,1451.2l62.16-53.28-28.42,78.16-12.44-21.31-21.31-3.57ZM1946.03,1458.32l63.95-53.31-30.19,78.16-12.44-21.31-21.32-3.54h0Z"/>
  <path class="cls-1" d="M1784.39,1687.42l172.3-166.93"/>
  <path class="cls-5" d="M1882.09,1564.87l83.5-37.29-56.85,76.37-5.34-26.64-21.31-12.44Z"/>
  <path class="cls-1" d="M1578.31,1847.26l8.9,23.1-37.31,72.81-10.66-33.75-35.52,5.32,47.96-65.7,26.64-1.78"/>
  <path class="cls-1" d="M1546.34,1845.48l5.33,24.88-49.73,63.94-5.36-33.75-35.51-1.79,60.39-55.04,24.88,1.76"/>
  <path class="cls-1" d="M1679.56,1884.57l15.98,21.31-17.76,79.92-19.53-28.43-31.97,12.44,30.21-74.6,23.07-10.64"/>
  <path class="cls-3" d="M1608.5,1847.26l10.67,23.1-31.97,74.58-12.44-33.73-31.97,7.12,40.83-67.52,24.88-3.54h0Z"/>
  <path class="cls-1" d="M1608.5,1847.26l10.66,23.1-31.97,74.58-12.44-33.75-31.97,7.12,40.83-67.51,24.89-3.54M1546.34,1845.48l92.36-78.14M1576.53,1916.54l-15.98,35.51h31.97"/>
  <path class="cls-4" d="M1620.94,1872.13l8.9,17.76-8.9-17.76Z"/>
  <path class="cls-1" d="M1620.94,1872.13l8.9,17.76"/>
  <path class="cls-1" d="M1649.37,1882.8l12.44,23.07-24.88,78.14-15.98-31.97-33.75,10.64,35.51-71.04,26.65-8.85M778.92,193.78c-21.32-51.52,19.55-99.47,78.16-83.49-10.66-40.84,42.63-94.12,97.7-53.27,8.88-46.19,71.06-72.83,110.14-19.55,24.88-46.17,104.82-42.62,111.92,19.55,19.56-26.65,110.14-26.65,99.48,55.06,26.65-21.31,111.92,7.09,78.17,81.7,58.62-7.11,88.82,60.37,47.95,103.01,37.31,7.11,74.63,76.37,8.9,115.44,55.07,47.95,15.98,104.78-26.65,110.11,31.97,60.39-14.21,101.23-63.94,95.91,7.09,56.83-39.09,94.13-92.38,67.49-5.32,56.83-65.73,76.37-106.6,37.29-28.42,55.06-90.59,47.95-113.69-3.55-33.75,40.84-101.25,23.09-106.59-35.52-44.41,21.32-101.25-7.11-88.83-72.81-53.29,8.88-90.59-42.63-60.4-92.36-44.41-8.88-76.39-65.72-26.65-110.11-42.63-19.53-49.74-85.25,7.11-111.89-35.5-42.63-10.62-99.45,46.22-103.01h0ZM830.43,225.75c15.99,44.4-7.09,76.37-37.3,87.01,28.42,28.42,19.53,72.83-7.11,90.58,33.76,23.09,42.63,56.83,23.09,90.57,46.2,7.11,58.62,47.95,49.74,78.14,31.98-7.11,72.84,19.55,71.06,58.61,28.42-17.77,76.39-7.11,88.83,33.75,26.64-28.42,65.73-31.97,94.16-1.78,14.21-33.75,60.39-47.95,87.04-28.42,0-39.08,42.63-71.05,79.95-55.06-17.78-44.4,21.31-78.14,49.73-79.92-23.1-30.19-10.66-79.92,26.65-92.36-33.75-19.53-39.09-69.26-8.87-95.91-47.98-12.43-53.29-60.39-37.31-87.03-28.42,7.09-76.4-24.86-65.73-69.26-37.31,14.21-78.17-8.88-85.26-44.41-28.42,26.64-78.17,14.21-92.38-14.2-12.44,23.09-51.5,46.17-92.37,15.98-5.33,31.97-40.85,58.61-81.72,46.17,1.78,44.43-31.97,71.06-62.18,67.52M979.65,344.74l8.88,24.86h26.65l-19.55,15.98,8.88,28.42-23.09-15.98-24.86,14.2,10.66-26.64-21.32-15.98h24.86l8.87-24.86h0ZM1162.62,344.74l7.12,24.86h26.65l-17.78,15.98,7.12,28.42-21.34-15.98-24.85,14.2,8.87-26.64-21.31-15.98h26.65l8.86-24.86h0ZM1212.37,422.89l7.09,24.86h26.65l-19.53,15.98,8.87,28.42-23.07-15.98-24.88,15.98,10.66-26.64-21.34-17.77h26.65l8.88-24.85ZM1121.76,422.89l7.12,24.86h26.65l-19.56,15.98,8.9,28.42-23.1-15.98-24.85,15.98,10.64-26.64-21.31-17.77h26.65l8.86-24.85ZM1027.61,422.89l7.11,24.86h26.65l-17.77,15.98,7.09,28.42-23.09-15.98-23.1,15.98,8.88-26.64-21.32-17.77h26.65l8.88-24.85h0ZM938.8,422.89l7.11,24.86h26.65l-19.55,15.98,8.88,28.42-23.09-15.98-24.88,15.98,10.66-26.64-21.32-17.77h26.64l8.88-24.85h0ZM1073.81,499.26l7.09,24.86h26.65l-17.76,15.98,7.12,28.42-23.1-15.98-23.1,14.2,8.9-26.64-21.32-15.98h26.64l8.87-24.86h0ZM1207.02,263.05l7.12,24.86h26.65l-19.56,15.98,8.9,28.42-23.1-15.98-24.85,15.98,10.64-26.64-21.31-17.77h26.65l8.86-24.85h0ZM1118.22,263.05l7.12,24.86h26.65l-17.78,15.98,8.9,28.42-23.1-15.98-24.88,15.98,8.9-26.64-19.53-17.77h24.85l8.87-24.85h0ZM1029.39,263.05l7.11,24.86h26.64l-17.77,15.98,8.87,28.42-23.09-15.98-24.86,15.98,8.88-26.64-19.55-17.77h24.86l8.9-24.85h0ZM940.57,263.05l7.11,24.86h26.65l-19.55,15.98,8.88,28.42-23.1-15.98-24.86,15.98,10.66-26.64-21.32-17.77h26.65l8.87-24.85h0ZM1068.49,188.45l8.87,24.86h26.65l-19.53,15.98,8.87,28.42-23.07-15.98-24.88,15.98,10.67-26.65-21.34-17.76h26.65l7.09-24.85ZM1068.49,124.51v53.28M1130.66,144.06l-15.98,56.83M1135.98,263.05l49.75-90.58M1178.61,264.82l56.85-60.39M1240.8,275.48l47.95-35.52M1244.34,332.31l65.73-30.19M1212.37,406.9l99.48,17.76M1246.11,461.96l60.39,30.19M1224.81,504.59l42.63,39.06M1162.62,501.04l55.07,71.05M1125.33,513.47l37.29,90.57M1015.19,509.92l-33.76,97.68M986.76,493.93l-58.62,79.93M921.03,506.37l-40.85,40.84M899.71,461.96l-53.29,26.64M938.8,403.35l-106.59,21.31M929.91,371.39h-101.25M897.94,328.76l-63.95-19.55M897.94,279.03l-53.29-35.52M937.02,247.06l-40.85-46.19M1004.51,266.59l-53.29-95.91M1022.3,204.43l-17.77-55.06M1215.92,373.15l108.36-7.11M1068.49,341.18l7.09,24.86h26.65l-19.56,15.98,8.9,28.42-23.07-14.21-24.88,14.21,10.65-26.64-21.31-17.77h26.65l8.87-24.85h0Z"/>
</svg>