<?xml version="1.0" encoding="UTF-8"?>
<svg id="Ebene_1" data-name="Ebene 1" xmlns="http://www.w3.org/2000/svg" viewBox="0 0 105 60">
  <defs>
    <style>
      .cls-1 {
        fill: #d4af37;
      }
    </style>
  </defs>
  <path class="cls-1" d="M0,0v27h32.75c1.48-9.77,9.87-16.99,19.75-17,9.88,0,18.28,7.23,19.76,17h32.74V0H0ZM52.5,16c-7.73,0-14,6.27-14,14h0c0,7.73,6.27,14,14,14s14-6.27,14-14-6.27-14-14-14h0ZM0,33v27h105v-27h-32.75c-1.48,9.77-9.87,16.99-19.75,17-9.88,0-18.28-7.23-19.76-17H0Z"/>
</svg>